<svg xmlns="http://www.w3.org/2000/svg" width="20.437" height="20.437" viewBox="0 0 20.437 20.437"><g data-name="Grupo 1136" fill="#ffd800"><g data-name="Grupo 98"><path data-name="Caminho 108" d="M7.248 4.678a1.157 1.157 0 0 1-1.252 1.16 1.144 1.144 0 0 1-1.206-1.16 1.152 1.152 0 0 1 1.237-1.161 1.148 1.148 0 0 1 1.221 1.161zm-2.4 9.544V6.755h2.324v7.468H4.851z"/><path data-name="Caminho 109" d="M8.562 9.136c0-.931-.03-1.71-.061-2.382h2.016l.107 1.038h.046a2.681 2.681 0 0 1 2.306-1.207c1.527 0 2.672 1.023 2.672 3.222v4.415h-2.321v-4.139c0-.962-.336-1.619-1.176-1.619a1.274 1.274 0 0 0-1.191.87 1.666 1.666 0 0 0-.077.58v4.308H8.562z"/></g><path data-name="Caminho 110" d="M14.8 0H5.64A5.646 5.646 0 0 0 0 5.64v9.16a5.646 5.646 0 0 0 5.64 5.64h9.16a5.646 5.646 0 0 0 5.64-5.64V5.64A5.646 5.646 0 0 0 14.8 0zm3.827 14.8a3.831 3.831 0 0 1-3.827 3.824H5.64A3.831 3.831 0 0 1 1.813 14.8V5.64A3.831 3.831 0 0 1 5.64 1.813h9.16a3.831 3.831 0 0 1 3.824 3.827v9.16z"/></g></svg>