<svg xmlns="http://www.w3.org/2000/svg" width="20.437" height="20.437" viewBox="0 0 20.437 20.437"><g fill="#ffd800" data-name="Grupo 1137"><path data-name="Caminho 110" d="M14.8 0H5.64A5.646 5.646 0 0 0 0 5.64v9.16a5.646 5.646 0 0 0 5.64 5.64h9.16a5.646 5.646 0 0 0 5.64-5.64V5.64A5.646 5.646 0 0 0 14.8 0zm3.827 14.8a3.831 3.831 0 0 1-3.827 3.824H5.64A3.831 3.831 0 0 1 1.813 14.8V5.64A3.831 3.831 0 0 1 5.64 1.813h9.16a3.831 3.831 0 0 1 3.824 3.827v9.16z"/><path data-name="Caminho 111" d="M10.218 4.953a5.266 5.266 0 1 0 5.266 5.266 5.272 5.272 0 0 0-5.266-5.266zm0 8.719a3.453 3.453 0 1 1 3.453-3.453 3.457 3.457 0 0 1-3.453 3.453z"/><path data-name="Caminho 112" d="M15.706 3.415a1.329 1.329 0 1 0 .94.389 1.335 1.335 0 0 0-.94-.389z"/></g></svg>